<svg width="366" height="18" viewBox="0 0 366 18" fill="none" xmlns="http://www.w3.org/2000/svg">
<path d="M2.71479 13H0.734673L5.18389 0.636363H7.33908L11.7883 13H9.80818L6.3128 2.8821H6.21621L2.71479 13ZM3.04682 8.15838H9.47011V9.72798H3.04682V8.15838ZM14.9337 13V0.636363H16.7991V11.3942H22.4014V13H14.9337ZM25.8894 13V0.636363H30.2964C31.2542 0.636363 32.0491 0.801373 32.681 1.13139C33.3169 1.46141 33.7918 1.91821 34.1057 2.50178C34.4196 3.08132 34.5766 3.75142 34.5766 4.51207C34.5766 5.2687 34.4176 5.93478 34.0996 6.5103C33.7857 7.08179 33.3108 7.52651 32.6749 7.84446C32.0431 8.16241 31.2482 8.32138 30.2903 8.32138H26.9519V6.71555H30.1213C30.725 6.71555 31.216 6.62902 31.5943 6.45597C31.9767 6.28291 32.2564 6.03137 32.4335 5.70135C32.6105 5.37133 32.6991 4.97491 32.6991 4.51207C32.6991 4.04522 32.6085 3.64074 32.4274 3.29865C32.2503 2.95656 31.9706 2.69496 31.5883 2.51385C31.21 2.32872 30.7129 2.23615 30.0972 2.23615H27.7548V13H25.8894ZM31.9928 7.42188L35.0474 13H32.9224L29.9281 7.42188H31.9928ZM38.2065 13V0.636363H45.9579V2.24219H40.0719V6.00923H45.5534V7.60902H40.0719V11.3942H46.0303V13H38.2065ZM50.854 13H48.8739L53.3231 0.636363H55.4783L59.9275 13H57.9474L54.452 2.8821H54.3554L50.854 13ZM51.186 8.15838H57.6093V9.72798H51.186V8.15838ZM67.0754 13H63.0729V0.636363H67.2022C68.4136 0.636363 69.454 0.883878 70.3233 1.37891C71.1926 1.86991 71.8587 2.57623 72.3215 3.49787C72.7884 4.41548 73.0218 5.51622 73.0218 6.80007C73.0218 8.08795 72.7864 9.19472 72.3155 10.1204C71.8486 11.046 71.1725 11.7584 70.2871 12.2575C69.4017 12.7525 68.3311 13 67.0754 13ZM64.9383 11.37H66.9728C67.9146 11.37 68.6973 11.1929 69.3212 10.8388C69.945 10.4806 70.4118 9.96342 70.7217 9.28729C71.0316 8.60713 71.1866 7.77805 71.1866 6.80007C71.1866 5.83014 71.0316 5.0071 70.7217 4.33097C70.4159 3.65483 69.9591 3.14169 69.3513 2.79155C68.7436 2.44141 67.989 2.26633 67.0875 2.26633H64.9383V11.37ZM75.1168 0.636363H77.2358L80.4655 6.25675H80.5983L83.8281 0.636363H85.9471L81.4616 8.14631V13H79.6022V8.14631L75.1168 0.636363ZM94.9273 13V0.636363H96.7928V6.00923H102.956V0.636363H104.828V13H102.956V7.60902H96.7928V13H94.9273ZM109.949 13H107.969L112.418 0.636363H114.573L119.022 13H117.042L113.547 2.8821H113.45L109.949 13ZM110.281 8.15838H116.704V9.72798H110.281V8.15838ZM121.954 0.636363L125.395 10.706H125.533L128.974 0.636363H130.991L126.542 13H124.386L119.937 0.636363H121.954ZM134.136 13V0.636363H141.888V2.24219H136.002V6.00923H141.483V7.60902H136.002V11.3942H141.96V13H134.136ZM152.643 13H150.663L155.112 0.636363H157.267L161.716 13H159.736L156.241 2.8821H156.144L152.643 13ZM152.975 8.15838H159.398V9.72798H152.975V8.15838ZM174.841 0.636363V13H173.126L166.842 3.93253H166.727V13H164.862V0.636363H166.588L172.879 9.71591H172.994V0.636363H174.841ZM185.825 13H183.845L188.294 0.636363H190.45L194.899 13H192.919L189.423 2.8821H189.327L185.825 13ZM186.157 8.15838H192.581V9.72798H186.157V8.15838ZM207.732 4.65696H205.849C205.776 4.2545 205.641 3.90033 205.444 3.59446C205.247 3.28859 205.005 3.029 204.72 2.8157C204.434 2.60239 204.114 2.44141 203.76 2.33274C203.41 2.22408 203.037 2.16974 202.643 2.16974C201.931 2.16974 201.293 2.34884 200.729 2.70703C200.17 3.06522 199.727 3.59044 199.401 4.28267C199.079 4.9749 198.918 5.82008 198.918 6.81818C198.918 7.82434 199.079 8.67353 199.401 9.36577C199.727 10.058 200.172 10.5812 200.735 10.9354C201.299 11.2895 201.933 11.4666 202.637 11.4666C203.027 11.4666 203.398 11.4143 203.748 11.3097C204.102 11.201 204.422 11.042 204.708 10.8327C204.993 10.6235 205.235 10.3679 205.432 10.0661C205.633 9.76018 205.772 9.41004 205.849 9.01562L207.732 9.02166C207.631 9.62938 207.436 10.1888 207.146 10.6999C206.861 11.207 206.492 11.6457 206.042 12.016C205.595 12.3822 205.084 12.666 204.508 12.8672C203.933 13.0684 203.305 13.169 202.625 13.169C201.554 13.169 200.6 12.9155 199.763 12.4084C198.926 11.8973 198.266 11.1668 197.783 10.217C197.304 9.26716 197.065 8.13423 197.065 6.81818C197.065 5.49811 197.306 4.36517 197.789 3.41939C198.272 2.46958 198.932 1.74112 199.769 1.23402C200.606 0.722893 201.558 0.467329 202.625 0.467329C203.281 0.467329 203.893 0.561908 204.46 0.751065C205.032 0.936198 205.545 1.20987 205.999 1.57209C206.454 1.93028 206.831 2.36896 207.128 2.88814C207.426 3.40329 207.627 3.9929 207.732 4.65696ZM221.593 4.65696H219.71C219.637 4.2545 219.502 3.90033 219.305 3.59446C219.108 3.28859 218.866 3.029 218.581 2.8157C218.295 2.60239 217.975 2.44141 217.621 2.33274C217.271 2.22408 216.898 2.16974 216.504 2.16974C215.792 2.16974 215.154 2.34884 214.59 2.70703C214.031 3.06522 213.588 3.59044 213.262 4.28267C212.94 4.9749 212.779 5.82008 212.779 6.81818C212.779 7.82434 212.94 8.67353 213.262 9.36577C213.588 10.058 214.033 10.5812 214.596 10.9354C215.16 11.2895 215.794 11.4666 216.498 11.4666C216.888 11.4666 217.259 11.4143 217.609 11.3097C217.963 11.201 218.283 11.042 218.569 10.8327C218.854 10.6235 219.096 10.3679 219.293 10.0661C219.494 9.76018 219.633 9.41004 219.71 9.01562L221.593 9.02166C221.492 9.62938 221.297 10.1888 221.007 10.6999C220.722 11.207 220.353 11.6457 219.903 12.016C219.456 12.3822 218.945 12.666 218.369 12.8672C217.794 13.0684 217.166 13.169 216.486 13.169C215.415 13.169 214.461 12.9155 213.624 12.4084C212.787 11.8973 212.127 11.1668 211.644 10.217C211.165 9.26716 210.926 8.13423 210.926 6.81818C210.926 5.49811 211.167 4.36517 211.65 3.41939C212.133 2.46958 212.793 1.74112 213.63 1.23402C214.467 0.722893 215.419 0.467329 216.486 0.467329C217.142 0.467329 217.754 0.561908 218.321 0.751065C218.893 0.936198 219.406 1.20987 219.86 1.57209C220.315 1.93028 220.692 2.36896 220.989 2.88814C221.287 3.40329 221.488 3.9929 221.593 4.65696ZM235.925 6.81818C235.925 8.13826 235.683 9.2732 235.2 10.223C234.718 11.1688 234.055 11.8973 233.214 12.4084C232.377 12.9155 231.425 13.169 230.359 13.169C229.288 13.169 228.332 12.9155 227.491 12.4084C226.654 11.8973 225.994 11.1668 225.511 10.217C225.028 9.26716 224.787 8.13423 224.787 6.81818C224.787 5.49811 225.028 4.36517 225.511 3.41939C225.994 2.46958 226.654 1.74112 227.491 1.23402C228.332 0.722893 229.288 0.467329 230.359 0.467329C231.425 0.467329 232.377 0.722893 233.214 1.23402C234.055 1.74112 234.718 2.46958 235.2 3.41939C235.683 4.36517 235.925 5.49811 235.925 6.81818ZM234.078 6.81818C234.078 5.81203 233.915 4.96484 233.589 4.27663C233.267 3.5844 232.824 3.0612 232.26 2.70703C231.701 2.34884 231.067 2.16974 230.359 2.16974C229.646 2.16974 229.011 2.34884 228.451 2.70703C227.892 3.0612 227.449 3.5844 227.123 4.27663C226.801 4.96484 226.64 5.81203 226.64 6.81818C226.64 7.82434 226.801 8.67353 227.123 9.36577C227.449 10.054 227.892 10.5772 228.451 10.9354C229.011 11.2895 229.646 11.4666 230.359 11.4666C231.067 11.4666 231.701 11.2895 232.26 10.9354C232.824 10.5772 233.267 10.054 233.589 9.36577C233.915 8.67353 234.078 7.82434 234.078 6.81818ZM247.561 0.636363H249.433V8.76811C249.433 9.6334 249.229 10.4001 248.823 11.0682C248.417 11.7322 247.845 12.2554 247.108 12.6378C246.372 13.0161 245.509 13.2053 244.519 13.2053C243.533 13.2053 242.671 13.0161 241.935 12.6378C241.198 12.2554 240.627 11.7322 240.22 11.0682C239.814 10.4001 239.611 9.6334 239.611 8.76811V0.636363H241.476V8.61719C241.476 9.17661 241.599 9.67365 241.844 10.1083C242.094 10.543 242.446 10.8851 242.901 11.1346C243.356 11.3801 243.895 11.5028 244.519 11.5028C245.146 11.5028 245.688 11.3801 246.143 11.1346C246.601 10.8851 246.952 10.543 247.193 10.1083C247.439 9.67365 247.561 9.17661 247.561 8.61719V0.636363ZM263.484 0.636363V13H261.769L255.485 3.93253H255.37V13H253.505V0.636363H255.231L261.522 9.71591H261.637V0.636363H263.484ZM266.955 2.24219V0.636363H276.524V2.24219H272.666V13H270.807V2.24219H266.955ZM281.827 9.44425V9.32955C281.836 8.58097 281.91 7.98532 282.051 7.54261C282.196 7.0999 282.401 6.74171 282.667 6.46804C282.932 6.19437 283.252 5.94484 283.626 5.71946C283.868 5.56652 284.085 5.39548 284.278 5.20632C284.472 5.01716 284.625 4.79983 284.737 4.55433C284.85 4.30883 284.906 4.03717 284.906 3.73935C284.906 3.38116 284.822 3.07126 284.653 2.80966C284.484 2.54806 284.258 2.34683 283.977 2.20597C283.699 2.06108 283.389 1.98864 283.047 1.98864C282.737 1.98864 282.441 2.05303 282.159 2.18182C281.878 2.31061 281.644 2.51184 281.459 2.78551C281.274 3.05516 281.167 3.40329 281.139 3.8299H279.304C279.332 3.10547 279.515 2.49373 279.853 1.99467C280.191 1.4916 280.638 1.11127 281.194 0.853692C281.753 0.596117 282.371 0.467329 283.047 0.467329C283.787 0.467329 284.435 0.606179 284.991 0.883878C285.546 1.15755 285.977 1.5419 286.283 2.03693C286.593 2.52794 286.748 3.10144 286.748 3.75746C286.748 4.20821 286.677 4.6147 286.536 4.97692C286.395 5.33511 286.194 5.65507 285.933 5.93679C285.675 6.21851 285.365 6.46804 285.003 6.68537C284.661 6.89867 284.383 7.12003 284.17 7.34943C283.961 7.57883 283.808 7.8505 283.711 8.16442C283.614 8.47834 283.562 8.86671 283.554 9.32955V9.44425H281.827ZM282.739 13.1147C282.409 13.1147 282.125 12.998 281.888 12.7646C281.65 12.5271 281.532 12.2414 281.532 11.9073C281.532 11.5773 281.65 11.2956 281.888 11.0621C282.125 10.8247 282.409 10.706 282.739 10.706C283.065 10.706 283.347 10.8247 283.584 11.0621C283.826 11.2956 283.946 11.5773 283.946 11.9073C283.946 12.1287 283.89 12.3319 283.777 12.517C283.669 12.6982 283.524 12.843 283.343 12.9517C283.162 13.0604 282.96 13.1147 282.739 13.1147ZM302.892 3.88423C302.828 3.31274 302.562 2.87003 302.095 2.55611C301.628 2.23816 301.041 2.07919 300.332 2.07919C299.825 2.07919 299.387 2.15968 299.016 2.32067C298.646 2.47763 298.358 2.69496 298.153 2.97266C297.952 3.24633 297.851 3.55824 297.851 3.90838C297.851 4.20218 297.92 4.45573 298.057 4.66903C298.197 4.88234 298.381 5.06143 298.606 5.20632C298.835 5.34718 299.081 5.46591 299.342 5.5625C299.604 5.65507 299.856 5.73153 300.097 5.7919L301.304 6.10582C301.699 6.20241 302.103 6.33321 302.518 6.49822C302.932 6.66323 303.317 6.88056 303.671 7.15021C304.025 7.41986 304.311 7.75391 304.528 8.15234C304.75 8.55078 304.86 9.0277 304.86 9.5831C304.86 10.2834 304.679 10.9052 304.317 11.4485C303.959 11.9918 303.437 12.4205 302.753 12.7344C302.073 13.0483 301.25 13.2053 300.284 13.2053C299.359 13.2053 298.558 13.0584 297.881 12.7646C297.205 12.4708 296.676 12.0542 296.294 11.5149C295.911 10.9716 295.7 10.3277 295.66 9.5831H297.531C297.568 10.0298 297.712 10.4021 297.966 10.6999C298.224 10.9937 298.552 11.2131 298.95 11.358C299.352 11.4988 299.793 11.5692 300.272 11.5692C300.799 11.5692 301.268 11.4867 301.679 11.3217C302.093 11.1527 302.419 10.9193 302.657 10.6214C302.894 10.3196 303.013 9.96745 303.013 9.56499C303.013 9.19875 302.908 8.89891 302.699 8.66548C302.494 8.43205 302.214 8.23887 301.86 8.08594C301.51 7.933 301.113 7.79818 300.671 7.68146L299.21 7.28303C298.22 7.01338 297.435 6.61695 296.855 6.09375C296.28 5.57055 295.992 4.87831 295.992 4.01704C295.992 3.30469 296.185 2.68288 296.571 2.15163C296.958 1.62038 297.481 1.20786 298.141 0.914062C298.801 0.61624 299.546 0.467329 300.375 0.467329C301.212 0.467329 301.95 0.614228 302.59 0.908025C303.234 1.20182 303.741 1.6063 304.112 2.12145C304.482 2.63258 304.675 3.22017 304.691 3.88423H302.892ZM310.315 0.636363V13H308.449V0.636363H310.315ZM322.759 4.54226C322.642 4.17602 322.485 3.84801 322.288 3.55824C322.095 3.26444 321.863 3.01491 321.593 2.80966C321.324 2.60038 321.016 2.44141 320.67 2.33274C320.328 2.22408 319.951 2.16974 319.541 2.16974C318.845 2.16974 318.217 2.34884 317.657 2.70703C317.098 3.06522 316.655 3.59044 316.329 4.28267C316.007 4.97088 315.846 5.81404 315.846 6.81214C315.846 7.81428 316.009 8.66146 316.335 9.35369C316.661 10.0459 317.108 10.5711 317.675 10.9293C318.243 11.2875 318.889 11.4666 319.613 11.4666C320.285 11.4666 320.871 11.3298 321.37 11.0561C321.873 10.7824 322.262 10.3961 322.535 9.89702C322.813 9.39394 322.952 8.80232 322.952 8.12216L323.435 8.21271H319.897V6.6733H324.757V8.0799C324.757 9.11825 324.535 10.0198 324.093 10.7844C323.654 11.5451 323.046 12.1327 322.27 12.5472C321.497 12.9618 320.611 13.169 319.613 13.169C318.494 13.169 317.512 12.9115 316.667 12.3963C315.826 11.8812 315.17 11.1507 314.699 10.2049C314.228 9.25509 313.993 8.1282 313.993 6.82422C313.993 5.83819 314.13 4.95277 314.403 4.16797C314.677 3.38317 315.061 2.71709 315.557 2.16974C316.056 1.61837 316.641 1.1978 317.313 0.908025C317.989 0.614228 318.728 0.467329 319.529 0.467329C320.197 0.467329 320.819 0.565932 321.394 0.763139C321.974 0.960345 322.489 1.24006 322.94 1.60227C323.394 1.96449 323.771 2.39512 324.069 2.89418C324.366 3.3892 324.568 3.93857 324.672 4.54226H322.759ZM338.464 0.636363V13H336.749L330.465 3.93253H330.35V13H328.485V0.636363H330.211L336.502 9.71591H336.617V0.636363H338.464ZM350.269 0.636363V13H348.404V0.636363H350.269ZM364.325 0.636363V13H362.611L356.326 3.93253H356.211V13H354.346V0.636363H356.073L362.363 9.71591H362.478V0.636363H364.325Z" fill="white"/>
<path d="M294.791 16.3807H365.683V17.5398H294.791V16.3807Z" fill="white"/>
</svg>
