<svg width="520" height="18" viewBox="0 0 520 18" fill="none" xmlns="http://www.w3.org/2000/svg">
<path d="M0.843936 13V0.636363H8.51084V2.24219H2.70935V6.00923H7.96148V7.60902H2.70935V13H0.843936ZM14.0303 0.636363V13H12.1649V0.636363H14.0303ZM18.1069 13V0.636363H22.5139C23.4717 0.636363 24.2666 0.801373 24.8985 1.13139C25.5343 1.46141 26.0092 1.91821 26.3232 2.50178C26.6371 3.08132 26.794 3.75142 26.794 4.51207C26.794 5.2687 26.6351 5.93478 26.3171 6.5103C26.0032 7.08179 25.5283 7.52651 24.8924 7.84446C24.2606 8.16241 23.4657 8.32138 22.5078 8.32138H19.1694V6.71555H22.3388C22.9425 6.71555 23.4335 6.62902 23.8118 6.45597C24.1941 6.28291 24.4739 6.03137 24.6509 5.70135C24.828 5.37133 24.9166 4.97491 24.9166 4.51207C24.9166 4.04522 24.826 3.64074 24.6449 3.29865C24.4678 2.95656 24.1881 2.69496 23.8058 2.51385C23.4275 2.32872 22.9304 2.23615 22.3146 2.23615H19.9723V13H18.1069ZM24.2102 7.42188L27.2649 13H25.1399L22.1456 7.42188H24.2102ZM37.1672 3.88423C37.1028 3.31274 36.8372 2.87003 36.3703 2.55611C35.9035 2.23816 35.3159 2.07919 34.6075 2.07919C34.1004 2.07919 33.6617 2.15968 33.2915 2.32067C32.9212 2.47763 32.6335 2.69496 32.4282 2.97266C32.227 3.24633 32.1264 3.55824 32.1264 3.90838C32.1264 4.20218 32.1948 4.45573 32.3316 4.66903C32.4725 4.88234 32.6556 5.06143 32.881 5.20632C33.1104 5.34718 33.3559 5.46591 33.6175 5.5625C33.8791 5.65507 34.1306 5.73153 34.3721 5.7919L35.5795 6.10582C35.9739 6.20241 36.3784 6.33321 36.7929 6.49822C37.2074 6.66323 37.5918 6.88056 37.946 7.15021C38.3001 7.41986 38.5859 7.75391 38.8032 8.15234C39.0246 8.55078 39.1352 9.0277 39.1352 9.5831C39.1352 10.2834 38.9541 10.9052 38.5919 11.4485C38.2337 11.9918 37.7125 12.4205 37.0283 12.7344C36.3482 13.0483 35.5251 13.2053 34.5592 13.2053C33.6336 13.2053 32.8327 13.0584 32.1565 12.7646C31.4804 12.4708 30.9512 12.0542 30.5688 11.5149C30.1865 10.9716 29.9752 10.3277 29.9349 9.5831H31.8064C31.8426 10.0298 31.9875 10.4021 32.2411 10.6999C32.4986 10.9937 32.8266 11.2131 33.2251 11.358C33.6275 11.4988 34.0682 11.5692 34.5472 11.5692C35.0744 11.5692 35.5433 11.4867 35.9538 11.3217C36.3683 11.1527 36.6943 10.9193 36.9317 10.6214C37.1692 10.3196 37.2879 9.96745 37.2879 9.56499C37.2879 9.19875 37.1833 8.89891 36.974 8.66548C36.7688 8.43205 36.489 8.23887 36.1349 8.08594C35.7847 7.933 35.3883 7.79818 34.9456 7.68146L33.4847 7.28303C32.4946 7.01338 31.7098 6.61695 31.1303 6.09375C30.5547 5.57055 30.267 4.87831 30.267 4.01704C30.267 3.30469 30.4602 2.68288 30.8465 2.15163C31.2329 1.62038 31.7561 1.20786 32.4161 0.914062C33.0762 0.61624 33.8207 0.467329 34.6498 0.467329C35.4869 0.467329 36.2254 0.614228 36.8653 0.908025C37.5093 1.20182 38.0164 1.6063 38.3866 2.12145C38.7569 2.63258 38.9501 3.22017 38.9662 3.88423H37.1672ZM42.1146 2.24219V0.636363H51.6832V2.24219H47.8256V13H45.9662V2.24219H42.1146ZM60.4069 2.24219V0.636363H69.9754V2.24219H66.1178V13H64.2585V2.24219H60.4069ZM75.3153 0.636363V13H73.4499V0.636363H75.3153ZM79.3919 0.636363H81.6558L85.5918 10.2472H85.7367L89.6728 0.636363H91.9366V13H90.1618V4.05327H90.0471L86.4008 12.9819H84.9278L81.2815 4.04723H81.1668V13H79.3919V0.636363ZM96.0087 13V0.636363H103.76V2.24219H97.8742V6.00923H103.356V7.60902H97.8742V11.3942H103.833V13H96.0087ZM113.471 13V0.636363H115.336V6.00923H121.5V0.636363H123.371V13H121.5V7.60902H115.336V13H113.471ZM127.448 13V0.636363H135.2V2.24219H129.314V6.00923H134.795V7.60902H129.314V11.3942H135.272V13H127.448ZM139.051 13V0.636363H143.458C144.416 0.636363 145.211 0.801373 145.843 1.13139C146.479 1.46141 146.954 1.91821 147.268 2.50178C147.581 3.08132 147.738 3.75142 147.738 4.51207C147.738 5.2687 147.579 5.93478 147.261 6.5103C146.948 7.08179 146.473 7.52651 145.837 7.84446C145.205 8.16241 144.41 8.32138 143.452 8.32138H140.114V6.71555H143.283C143.887 6.71555 144.378 6.62902 144.756 6.45597C145.139 6.28291 145.418 6.03137 145.595 5.70135C145.772 5.37133 145.861 4.97491 145.861 4.51207C145.861 4.04522 145.77 3.64074 145.589 3.29865C145.412 2.95656 145.132 2.69496 144.75 2.51385C144.372 2.32872 143.875 2.23615 143.259 2.23615H140.917V13H139.051ZM145.155 7.42188L148.209 13H146.084L143.09 7.42188H145.155ZM151.368 13V0.636363H159.12V2.24219H153.234V6.00923H158.715V7.60902H153.234V11.3942H159.192V13H151.368ZM164.801 9.44425V9.32955C164.809 8.58097 164.883 7.98532 165.024 7.54261C165.169 7.0999 165.374 6.74171 165.64 6.46804C165.905 6.19437 166.225 5.94484 166.6 5.71946C166.841 5.56652 167.058 5.39548 167.252 5.20632C167.445 5.01716 167.598 4.79983 167.71 4.55433C167.823 4.30883 167.879 4.03717 167.879 3.73935C167.879 3.38116 167.795 3.07126 167.626 2.80966C167.457 2.54806 167.232 2.34683 166.95 2.20597C166.672 2.06108 166.362 1.98864 166.02 1.98864C165.71 1.98864 165.414 2.05303 165.133 2.18182C164.851 2.31061 164.618 2.51184 164.432 2.78551C164.247 3.05516 164.141 3.40329 164.112 3.8299H162.277C162.305 3.10547 162.489 2.49373 162.827 1.99467C163.165 1.4916 163.611 1.11127 164.167 0.853692C164.726 0.596117 165.344 0.467329 166.02 0.467329C166.761 0.467329 167.409 0.606179 167.964 0.883878C168.519 1.15755 168.95 1.5419 169.256 2.03693C169.566 2.52794 169.721 3.10144 169.721 3.75746C169.721 4.20821 169.65 4.6147 169.509 4.97692C169.369 5.33511 169.167 5.65507 168.906 5.93679C168.648 6.21851 168.338 6.46804 167.976 6.68537C167.634 6.89867 167.356 7.12003 167.143 7.34943C166.934 7.57883 166.781 7.8505 166.684 8.16442C166.588 8.47834 166.535 8.86671 166.527 9.32955V9.44425H164.801ZM165.712 13.1147C165.382 13.1147 165.098 12.998 164.861 12.7646C164.624 12.5271 164.505 12.2414 164.505 11.9073C164.505 11.5773 164.624 11.2956 164.861 11.0621C165.098 10.8247 165.382 10.706 165.712 10.706C166.038 10.706 166.32 10.8247 166.557 11.0621C166.799 11.2956 166.92 11.5773 166.92 11.9073C166.92 12.1287 166.863 12.3319 166.751 12.517C166.642 12.6982 166.497 12.843 166.316 12.9517C166.135 13.0604 165.934 13.1147 165.712 13.1147ZM178.512 2.24219V0.636363H188.081V2.24219H184.223V13H182.364V2.24219H178.512ZM191.139 13H189.159L193.608 0.636363H195.763L200.212 13H198.232L194.737 2.8821H194.64L191.139 13ZM191.471 8.15838H197.894V9.72798H191.471V8.15838ZM203.358 13V0.636363H207.765C208.727 0.636363 209.523 0.811434 210.155 1.16158C210.787 1.51172 211.26 1.99065 211.574 2.59837C211.888 3.20206 212.045 3.88222 212.045 4.63885C212.045 5.3995 211.886 6.08369 211.568 6.69141C211.254 7.2951 210.779 7.77403 210.143 8.1282C209.511 8.47834 208.717 8.65341 207.759 8.65341H204.728V7.07173H207.59C208.197 7.07173 208.69 6.96709 209.069 6.75781C209.447 6.54451 209.725 6.25473 209.902 5.88849C210.079 5.52225 210.167 5.10571 210.167 4.63885C210.167 4.17199 210.079 3.75746 209.902 3.39524C209.725 3.03303 209.445 2.74929 209.063 2.54403C208.684 2.33878 208.185 2.23615 207.566 2.23615H205.223V13H203.358ZM221.451 13V0.636363H223.316V6.00923H229.48V0.636363H231.351V13H229.48V7.60902H223.316V13H221.451ZM235.428 13V0.636363H243.179V2.24219H237.293V6.00923H242.775V7.60902H237.293V11.3942H243.252V13H235.428ZM247.031 13V0.636363H251.438C252.396 0.636363 253.191 0.801373 253.823 1.13139C254.459 1.46141 254.934 1.91821 255.247 2.50178C255.561 3.08132 255.718 3.75142 255.718 4.51207C255.718 5.2687 255.559 5.93478 255.241 6.5103C254.927 7.08179 254.453 7.52651 253.817 7.84446C253.185 8.16241 252.39 8.32138 251.432 8.32138H248.094V6.71555H251.263C251.867 6.71555 252.358 6.62902 252.736 6.45597C253.118 6.28291 253.398 6.03137 253.575 5.70135C253.752 5.37133 253.841 4.97491 253.841 4.51207C253.841 4.04522 253.75 3.64074 253.569 3.29865C253.392 2.95656 253.112 2.69496 252.73 2.51385C252.352 2.32872 251.855 2.23615 251.239 2.23615H248.897V13H247.031ZM253.134 7.42188L256.189 13H254.064L251.07 7.42188H253.134ZM259.348 13V0.636363H267.1V2.24219H261.214V6.00923H266.695V7.60902H261.214V11.3942H267.172V13H259.348ZM276.201 2.24219V0.636363H285.769V2.24219H281.912V13H280.052V2.24219H276.201ZM299.452 6.81818C299.452 8.13826 299.211 9.2732 298.728 10.223C298.245 11.1688 297.583 11.8973 296.741 12.4084C295.904 12.9155 294.953 13.169 293.886 13.169C292.815 13.169 291.86 12.9155 291.018 12.4084C290.181 11.8973 289.521 11.1668 289.038 10.217C288.555 9.26716 288.314 8.13423 288.314 6.81818C288.314 5.49811 288.555 4.36517 289.038 3.41939C289.521 2.46958 290.181 1.74112 291.018 1.23402C291.86 0.722893 292.815 0.467329 293.886 0.467329C294.953 0.467329 295.904 0.722893 296.741 1.23402C297.583 1.74112 298.245 2.46958 298.728 3.41939C299.211 4.36517 299.452 5.49811 299.452 6.81818ZM297.605 6.81818C297.605 5.81203 297.442 4.96484 297.116 4.27663C296.794 3.5844 296.351 3.0612 295.788 2.70703C295.228 2.34884 294.594 2.16974 293.886 2.16974C293.174 2.16974 292.538 2.34884 291.978 2.70703C291.419 3.0612 290.976 3.5844 290.65 4.27663C290.328 4.96484 290.167 5.81203 290.167 6.81818C290.167 7.82434 290.328 8.67353 290.65 9.36577C290.976 10.054 291.419 10.5772 291.978 10.9354C292.538 11.2895 293.174 11.4666 293.886 11.4666C294.594 11.4666 295.228 11.2895 295.788 10.9354C296.351 10.5772 296.794 10.054 297.116 9.36577C297.442 8.67353 297.605 7.82434 297.605 6.81818ZM319.266 4.65696H317.382C317.31 4.2545 317.175 3.90033 316.978 3.59446C316.78 3.28859 316.539 3.029 316.253 2.8157C315.967 2.60239 315.648 2.44141 315.293 2.33274C314.943 2.22408 314.571 2.16974 314.177 2.16974C313.464 2.16974 312.826 2.34884 312.263 2.70703C311.703 3.06522 311.261 3.59044 310.935 4.28267C310.613 4.9749 310.452 5.82008 310.452 6.81818C310.452 7.82434 310.613 8.67353 310.935 9.36577C311.261 10.058 311.705 10.5812 312.269 10.9354C312.832 11.2895 313.466 11.4666 314.17 11.4666C314.561 11.4666 314.931 11.4143 315.281 11.3097C315.635 11.201 315.955 11.042 316.241 10.8327C316.527 10.6235 316.768 10.3679 316.966 10.0661C317.167 9.76018 317.306 9.41004 317.382 9.01562L319.266 9.02166C319.165 9.62938 318.97 10.1888 318.68 10.6999C318.394 11.207 318.026 11.6457 317.575 12.016C317.129 12.3822 316.617 12.666 316.042 12.8672C315.466 13.0684 314.839 13.169 314.158 13.169C313.088 13.169 312.134 12.9155 311.297 12.4084C310.46 11.8973 309.8 11.1668 309.317 10.217C308.838 9.26716 308.598 8.13423 308.598 6.81818C308.598 5.49811 308.84 4.36517 309.323 3.41939C309.806 2.46958 310.466 1.74112 311.303 1.23402C312.14 0.722893 313.092 0.467329 314.158 0.467329C314.814 0.467329 315.426 0.561908 315.994 0.751065C316.565 0.936198 317.078 1.20987 317.533 1.57209C317.988 1.93028 318.364 2.36896 318.662 2.88814C318.96 3.40329 319.161 3.9929 319.266 4.65696ZM322.858 13V0.636363H327.265C328.223 0.636363 329.017 0.801373 329.649 1.13139C330.285 1.46141 330.76 1.91821 331.074 2.50178C331.388 3.08132 331.545 3.75142 331.545 4.51207C331.545 5.2687 331.386 5.93478 331.068 6.5103C330.754 7.08179 330.279 7.52651 329.643 7.84446C329.011 8.16241 328.217 8.32138 327.259 8.32138H323.92V6.71555H327.09C327.693 6.71555 328.184 6.62902 328.563 6.45597C328.945 6.28291 329.225 6.03137 329.402 5.70135C329.579 5.37133 329.667 4.97491 329.667 4.51207C329.667 4.04522 329.577 3.64074 329.396 3.29865C329.219 2.95656 328.939 2.69496 328.557 2.51385C328.178 2.32872 327.681 2.23615 327.066 2.23615H324.723V13H322.858ZM328.961 7.42188L332.016 13H329.891L326.896 7.42188H328.961ZM335.175 13V0.636363H342.926V2.24219H337.04V6.00923H342.522V7.60902H337.04V11.3942H342.999V13H335.175ZM347.822 13H345.842L350.291 0.636363H352.447L356.896 13H354.916L351.42 2.8821H351.324L347.822 13ZM348.154 8.15838H354.578V9.72798H348.154V8.15838ZM357.971 2.24219V0.636363H367.539V2.24219H363.682V13H361.822V2.24219H357.971ZM371.014 13V0.636363H378.765V2.24219H372.879V6.00923H378.361V7.60902H372.879V11.3942H378.837V13H371.014ZM389.52 13H387.54L391.989 0.636363H394.144L398.594 13H396.614L393.118 2.8821H393.022L389.52 13ZM389.852 8.15838H396.276V9.72798H389.852V8.15838ZM411.718 0.636363V13H410.004L403.719 3.93253H403.605V13H401.739V0.636363H403.466L409.756 9.71591H409.871V0.636363H411.718ZM422.703 13H420.723L425.172 0.636363H427.327L431.776 13H429.796L426.301 2.8821H426.204L422.703 13ZM423.035 8.15838H429.458V9.72798H423.035V8.15838ZM444.609 4.65696H442.726C442.653 4.2545 442.519 3.90033 442.321 3.59446C442.124 3.28859 441.883 3.029 441.597 2.8157C441.311 2.60239 440.991 2.44141 440.637 2.33274C440.287 2.22408 439.915 2.16974 439.52 2.16974C438.808 2.16974 438.17 2.34884 437.607 2.70703C437.047 3.06522 436.604 3.59044 436.278 4.28267C435.956 4.9749 435.796 5.82008 435.796 6.81818C435.796 7.82434 435.956 8.67353 436.278 9.36577C436.604 10.058 437.049 10.5812 437.613 10.9354C438.176 11.2895 438.81 11.4666 439.514 11.4666C439.905 11.4666 440.275 11.4143 440.625 11.3097C440.979 11.201 441.299 11.042 441.585 10.8327C441.871 10.6235 442.112 10.3679 442.309 10.0661C442.511 9.76018 442.649 9.41004 442.726 9.01562L444.609 9.02166C444.509 9.62938 444.314 10.1888 444.024 10.6999C443.738 11.207 443.37 11.6457 442.919 12.016C442.472 12.3822 441.961 12.666 441.386 12.8672C440.81 13.0684 440.182 13.169 439.502 13.169C438.432 13.169 437.478 12.9155 436.641 12.4084C435.804 11.8973 435.144 11.1668 434.661 10.217C434.182 9.26716 433.942 8.13423 433.942 6.81818C433.942 5.49811 434.184 4.36517 434.667 3.41939C435.15 2.46958 435.81 1.74112 436.647 1.23402C437.484 0.722893 438.436 0.467329 439.502 0.467329C440.158 0.467329 440.77 0.561908 441.337 0.751065C441.909 0.936198 442.422 1.20987 442.877 1.57209C443.332 1.93028 443.708 2.36896 444.006 2.88814C444.304 3.40329 444.505 3.9929 444.609 4.65696ZM458.47 4.65696H456.587C456.514 4.2545 456.38 3.90033 456.182 3.59446C455.985 3.28859 455.744 3.029 455.458 2.8157C455.172 2.60239 454.852 2.44141 454.498 2.33274C454.148 2.22408 453.776 2.16974 453.381 2.16974C452.669 2.16974 452.031 2.34884 451.468 2.70703C450.908 3.06522 450.465 3.59044 450.139 4.28267C449.817 4.9749 449.657 5.82008 449.657 6.81818C449.657 7.82434 449.817 8.67353 450.139 9.36577C450.465 10.058 450.91 10.5812 451.474 10.9354C452.037 11.2895 452.671 11.4666 453.375 11.4666C453.766 11.4666 454.136 11.4143 454.486 11.3097C454.84 11.201 455.16 11.042 455.446 10.8327C455.732 10.6235 455.973 10.3679 456.17 10.0661C456.372 9.76018 456.51 9.41004 456.587 9.01562L458.47 9.02166C458.37 9.62938 458.175 10.1888 457.885 10.6999C457.599 11.207 457.231 11.6457 456.78 12.016C456.333 12.3822 455.822 12.666 455.247 12.8672C454.671 13.0684 454.043 13.169 453.363 13.169C452.293 13.169 451.339 12.9155 450.502 12.4084C449.665 11.8973 449.005 11.1668 448.522 10.217C448.043 9.26716 447.803 8.13423 447.803 6.81818C447.803 5.49811 448.045 4.36517 448.528 3.41939C449.011 2.46958 449.671 1.74112 450.508 1.23402C451.345 0.722893 452.297 0.467329 453.363 0.467329C454.019 0.467329 454.631 0.561908 455.198 0.751065C455.77 0.936198 456.283 1.20987 456.738 1.57209C457.193 1.93028 457.569 2.36896 457.867 2.88814C458.165 3.40329 458.366 3.9929 458.47 4.65696ZM472.802 6.81818C472.802 8.13826 472.561 9.2732 472.078 10.223C471.595 11.1688 470.933 11.8973 470.092 12.4084C469.255 12.9155 468.303 13.169 467.236 13.169C466.166 13.169 465.21 12.9155 464.369 12.4084C463.532 11.8973 462.872 11.1668 462.389 10.217C461.906 9.26716 461.664 8.13423 461.664 6.81818C461.664 5.49811 461.906 4.36517 462.389 3.41939C462.872 2.46958 463.532 1.74112 464.369 1.23402C465.21 0.722893 466.166 0.467329 467.236 0.467329C468.303 0.467329 469.255 0.722893 470.092 1.23402C470.933 1.74112 471.595 2.46958 472.078 3.41939C472.561 4.36517 472.802 5.49811 472.802 6.81818ZM470.955 6.81818C470.955 5.81203 470.792 4.96484 470.466 4.27663C470.144 3.5844 469.701 3.0612 469.138 2.70703C468.578 2.34884 467.945 2.16974 467.236 2.16974C466.524 2.16974 465.888 2.34884 465.329 2.70703C464.769 3.0612 464.326 3.5844 464 4.27663C463.678 4.96484 463.517 5.81203 463.517 6.81818C463.517 7.82434 463.678 8.67353 464 9.36577C464.326 10.054 464.769 10.5772 465.329 10.9354C465.888 11.2895 466.524 11.4666 467.236 11.4666C467.945 11.4666 468.578 11.2895 469.138 10.9354C469.701 10.5772 470.144 10.054 470.466 9.36577C470.792 8.67353 470.955 7.82434 470.955 6.81818ZM484.439 0.636363H486.31V8.76811C486.31 9.6334 486.107 10.4001 485.7 11.0682C485.294 11.7322 484.722 12.2554 483.986 12.6378C483.249 13.0161 482.386 13.2053 481.396 13.2053C480.41 13.2053 479.549 13.0161 478.812 12.6378C478.076 12.2554 477.504 11.7322 477.098 11.0682C476.691 10.4001 476.488 9.6334 476.488 8.76811V0.636363H478.353V8.61719C478.353 9.17661 478.476 9.67365 478.722 10.1083C478.971 10.543 479.323 10.8851 479.778 11.1346C480.233 11.3801 480.772 11.5028 481.396 11.5028C482.024 11.5028 482.565 11.3801 483.02 11.1346C483.479 10.8851 483.829 10.543 484.07 10.1083C484.316 9.67365 484.439 9.17661 484.439 8.61719V0.636363ZM500.361 0.636363V13H498.647L492.362 3.93253H492.248V13H490.382V0.636363H492.109L498.399 9.71591H498.514V0.636363H500.361ZM503.833 2.24219V0.636363H513.401V2.24219H509.544V13H507.684V2.24219H503.833ZM519.007 0.636363L518.85 9.44425H517.177L517.021 0.636363H519.007ZM518.017 13.1147C517.683 13.1147 517.397 12.998 517.159 12.7646C516.922 12.5271 516.805 12.2414 516.809 11.9073C516.805 11.5773 516.922 11.2956 517.159 11.0621C517.397 10.8247 517.683 10.706 518.017 10.706C518.343 10.706 518.624 10.8247 518.862 11.0621C519.099 11.2956 519.22 11.5773 519.224 11.9073C519.22 12.1287 519.162 12.3319 519.049 12.517C518.94 12.6982 518.795 12.843 518.614 12.9517C518.433 13.0604 518.234 13.1147 518.017 13.1147Z" fill="white"/>
<path d="M177.764 16.3807H269.601V17.5398H177.764V16.3807Z" fill="white"/>
</svg>
