<svg width="164" height="49" viewBox="0 0 164 49" fill="none" xmlns="http://www.w3.org/2000/svg">
<path d="M52.2518 17.259L57.0658 2.179H60.6618L54.1948 21H50.5988L44.2188 2.179H47.8438L52.5998 17.259H52.2518ZM65.8684 4.354C65.2014 4.354 64.6794 4.18 64.3024 3.832C63.9351 3.47433 63.7514 2.98133 63.7514 2.353C63.7514 1.744 63.9351 1.26067 64.3024 0.902999C64.6794 0.535666 65.2014 0.352 65.8684 0.352C66.5257 0.352 67.0429 0.535666 67.4199 0.902999C67.7969 1.26067 67.9854 1.744 67.9854 2.353C67.9854 2.98133 67.7969 3.47433 67.4199 3.832C67.0429 4.18 66.5257 4.354 65.8684 4.354ZM64.1574 21V6.877H67.5794V21H64.1574ZM78.574 21.406C77.3947 21.406 76.3169 21.0967 75.3405 20.478C74.3739 19.8497 73.6005 18.9748 73.0205 17.8535C72.4502 16.7225 72.165 15.403 72.165 13.895C72.165 12.4063 72.4405 11.111 72.9915 10.009C73.5522 8.89733 74.2965 8.04183 75.2245 7.4425C76.1622 6.8335 77.2014 6.529 78.342 6.529C79.386 6.529 80.2899 6.78033 81.0535 7.283C81.8172 7.776 82.402 8.51067 82.808 9.487C83.214 10.4633 83.417 11.662 83.417 13.083H82.344C82.344 12.3483 82.1942 11.7248 81.8945 11.2125C81.5949 10.6905 81.1985 10.2942 80.7055 10.0235C80.2222 9.74317 79.6954 9.603 79.125 9.603C78.4387 9.603 77.8297 9.78183 77.298 10.1395C76.776 10.4972 76.3652 10.9998 76.0655 11.6475C75.7659 12.2855 75.616 13.0347 75.616 13.895C75.616 14.7843 75.7659 15.5577 76.0655 16.215C76.3652 16.8723 76.776 17.3847 77.298 17.752C77.8297 18.1193 78.429 18.303 79.096 18.303C79.6374 18.303 80.1545 18.158 80.6475 17.868C81.1502 17.5683 81.5562 17.1527 81.8655 16.621C82.1845 16.0893 82.344 15.4707 82.344 14.765H83.417C83.417 16.244 83.1947 17.4765 82.75 18.4625C82.315 19.4388 81.7302 20.1735 80.9955 20.6665C80.2609 21.1595 79.4537 21.406 78.574 21.406ZM82.982 21L82.344 17.52V1.106H85.795V21H82.982ZM96.4455 21.406C95.2468 21.406 94.1497 21.0967 93.154 20.478C92.1583 19.8593 91.3608 18.9942 90.7615 17.8825C90.1622 16.7612 89.8625 15.4513 89.8625 13.953C89.8625 12.4063 90.1573 11.0772 90.747 9.9655C91.3463 8.85383 92.1438 8.00317 93.1395 7.4135C94.1352 6.82383 95.2372 6.529 96.4455 6.529C97.5668 6.529 98.5335 6.75617 99.3455 7.2105C100.167 7.65517 100.825 8.26417 101.318 9.0375C101.82 9.80117 102.159 10.6663 102.333 11.633C102.507 12.5997 102.516 13.5953 102.362 14.62H92.5885V12.764H99.94L99.273 13.199C99.302 12.7447 99.2778 12.2855 99.2005 11.8215C99.1328 11.3575 98.9975 10.9322 98.7945 10.5455C98.5915 10.1588 98.3015 9.8495 97.9245 9.6175C97.5572 9.37583 97.0835 9.255 96.5035 9.255C95.8075 9.255 95.2178 9.429 94.7345 9.777C94.2512 10.125 93.8838 10.5987 93.6325 11.198C93.3812 11.7973 93.2555 12.474 93.2555 13.228V14.591C93.2555 15.3837 93.3715 16.0845 93.6035 16.6935C93.8452 17.3025 94.198 17.781 94.662 18.129C95.1357 18.477 95.7302 18.651 96.4455 18.651C97.1125 18.651 97.6732 18.4963 98.1275 18.187C98.5818 17.8777 98.8718 17.4137 98.9975 16.795H102.449C102.304 17.7037 101.96 18.506 101.419 19.202C100.887 19.8883 100.196 20.4297 99.3455 20.826C98.4948 21.2127 97.5282 21.406 96.4455 21.406ZM112.113 21.406C110.828 21.406 109.663 21.1305 108.619 20.5795C107.585 20.0285 106.763 19.2068 106.154 18.1145C105.545 17.0125 105.24 15.635 105.24 13.982C105.24 12.3 105.545 10.908 106.154 9.806C106.763 8.704 107.585 7.88233 108.619 7.341C109.663 6.79967 110.828 6.529 112.113 6.529C113.38 6.529 114.525 6.79967 115.55 7.341C116.584 7.88233 117.406 8.704 118.015 9.806C118.624 10.908 118.928 12.3 118.928 13.982C118.928 15.635 118.624 17.0125 118.015 18.1145C117.406 19.2068 116.584 20.0285 115.55 20.5795C114.525 21.1305 113.38 21.406 112.113 21.406ZM111.997 18.419C112.674 18.419 113.273 18.2547 113.795 17.926C114.327 17.5877 114.743 17.0898 115.042 16.4325C115.352 15.7752 115.506 14.9583 115.506 13.982C115.506 12.4933 115.212 11.372 114.622 10.618C114.042 9.864 113.244 9.487 112.229 9.487C111.543 9.487 110.934 9.65617 110.402 9.9945C109.871 10.3232 109.45 10.821 109.141 11.488C108.841 12.155 108.691 12.9863 108.691 13.982C108.691 15.4513 108.986 16.5582 109.576 17.3025C110.175 18.0468 110.982 18.419 111.997 18.419ZM2.4993 31.02V41.94H7.8393V44H0.139297V31.02H2.4993ZM16.2021 44L15.9021 41.64V37.74C15.9021 37.06 15.7621 36.5567 15.4821 36.23C15.2088 35.9033 14.7421 35.74 14.0821 35.74C13.7021 35.74 13.3721 35.7967 13.0921 35.91C12.8121 36.0233 12.5954 36.1867 12.4421 36.4C12.2954 36.6067 12.2221 36.86 12.2221 37.16H9.64211C9.64211 36.4267 9.81878 35.83 10.1721 35.37C10.5254 34.9033 11.0321 34.5633 11.6921 34.35C12.3588 34.13 13.1554 34.02 14.0821 34.02C14.9221 34.02 15.6554 34.1567 16.2821 34.43C16.9088 34.6967 17.3954 35.11 17.7421 35.67C18.0888 36.23 18.2621 36.9467 18.2621 37.82V44H16.2021ZM13.0221 44.28C12.1888 44.28 11.4921 44.1367 10.9321 43.85C10.3788 43.5567 9.96211 43.1733 9.68211 42.7C9.40211 42.2267 9.26211 41.7133 9.26211 41.16C9.26211 40.5467 9.42211 40.0333 9.74211 39.62C10.0688 39.2 10.5288 38.8867 11.1221 38.68C11.7154 38.4667 12.4154 38.36 13.2221 38.36C13.7488 38.36 14.2454 38.4 14.7121 38.48C15.1854 38.56 15.6554 38.6667 16.1221 38.8V40.18C15.7554 40.06 15.3554 39.9667 14.9221 39.9C14.4888 39.8333 14.0821 39.8 13.7021 39.8C13.1421 39.8 12.6821 39.9033 12.3221 40.11C11.9621 40.3167 11.7821 40.6667 11.7821 41.16C11.7821 41.52 11.9288 41.83 12.2221 42.09C12.5154 42.35 12.9821 42.48 13.6221 42.48C14.1088 42.48 14.5221 42.3733 14.8621 42.16C15.2021 41.9467 15.4588 41.68 15.6321 41.36C15.8121 41.04 15.9021 40.72 15.9021 40.4H16.4621C16.4621 41.1 16.3321 41.7467 16.0721 42.34C15.8121 42.9267 15.4254 43.3967 14.9121 43.75C14.4054 44.1033 13.7754 44.28 13.0221 44.28ZM28.3813 44V38.32C28.3813 37.6 28.208 37.0567 27.8613 36.69C27.5147 36.3233 27.0613 36.14 26.5013 36.14C26.028 36.14 25.608 36.27 25.2413 36.53C24.8813 36.79 24.598 37.1833 24.3913 37.71C24.1847 38.23 24.0813 38.88 24.0813 39.66H23.3013C23.3013 38.4 23.458 37.3533 23.7713 36.52C24.0847 35.68 24.528 35.0533 25.1013 34.64C25.6747 34.2267 26.348 34.02 27.1213 34.02C27.9213 34.02 28.588 34.2 29.1213 34.56C29.6613 34.9133 30.0647 35.4133 30.3313 36.06C30.6047 36.7067 30.7413 37.46 30.7413 38.32V44H28.3813ZM21.7213 44V34.3H23.7813L24.0813 36.22V44H21.7213ZM37.7623 44.28C36.9489 44.28 36.2056 44.0667 35.5323 43.64C34.8656 43.2067 34.3323 42.6033 33.9323 41.83C33.5389 41.05 33.3423 40.14 33.3423 39.1C33.3423 38.0733 33.5323 37.18 33.9123 36.42C34.2989 35.6533 34.8123 35.0633 35.4523 34.65C36.0989 34.23 36.8156 34.02 37.6023 34.02C38.3223 34.02 38.9456 34.1933 39.4723 34.54C39.9989 34.88 40.4023 35.3867 40.6823 36.06C40.9623 36.7333 41.1023 37.56 41.1023 38.54H40.3623C40.3623 38.0333 40.2589 37.6033 40.0523 37.25C39.8456 36.89 39.5723 36.6167 39.2323 36.43C38.8989 36.2367 38.5356 36.14 38.1423 36.14C37.6689 36.14 37.2489 36.2633 36.8823 36.51C36.5223 36.7567 36.2389 37.1033 36.0323 37.55C35.8256 37.99 35.7223 38.5067 35.7223 39.1C35.7223 39.7133 35.8256 40.2467 36.0323 40.7C36.2389 41.1533 36.5223 41.5067 36.8823 41.76C37.2489 42.0133 37.6623 42.14 38.1223 42.14C38.4956 42.14 38.8523 42.04 39.1923 41.84C39.5389 41.6333 39.8189 41.3467 40.0323 40.98C40.2523 40.6133 40.3623 40.1867 40.3623 39.7H41.1023C41.1023 40.72 40.9489 41.57 40.6423 42.25C40.3423 42.9233 39.9389 43.43 39.4323 43.77C38.9256 44.11 38.3689 44.28 37.7623 44.28ZM40.8023 44L40.3623 41.6V30.28H42.7423V44H40.8023ZM50.0874 44.28C49.1541 44.28 48.3508 44.1533 47.6774 43.9C47.0108 43.64 46.4974 43.27 46.1374 42.79C45.7774 42.3033 45.5941 41.72 45.5874 41.04H47.7674C47.7874 41.52 47.9774 41.87 48.3374 42.09C48.6974 42.31 49.1874 42.42 49.8074 42.42C50.1474 42.42 50.4474 42.37 50.7074 42.27C50.9741 42.17 51.1808 42.0333 51.3274 41.86C51.4741 41.6867 51.5474 41.4933 51.5474 41.28C51.5474 41.0067 51.4474 40.7933 51.2474 40.64C51.0541 40.48 50.7408 40.3333 50.3074 40.2L48.1874 39.44C47.4274 39.1667 46.8441 38.8067 46.4374 38.36C46.0308 37.9133 45.8274 37.38 45.8274 36.76C45.8274 35.94 46.1974 35.28 46.9374 34.78C47.6841 34.2733 48.6808 34.02 49.9274 34.02C51.1674 34.02 52.1241 34.2933 52.7974 34.84C53.4774 35.38 53.8274 36.0667 53.8474 36.9H51.6274C51.5941 36.58 51.4408 36.3267 51.1674 36.14C50.8941 35.9533 50.4808 35.86 49.9274 35.86C49.4274 35.86 49.0341 35.9633 48.7474 36.17C48.4674 36.37 48.3274 36.6067 48.3274 36.88C48.3274 37.34 48.7208 37.6867 49.5074 37.92L51.8074 38.78C52.5541 39.0333 53.1341 39.36 53.5474 39.76C53.9608 40.16 54.1674 40.6667 54.1674 41.28C54.1674 41.7933 53.9941 42.28 53.6474 42.74C53.3074 43.1933 52.8308 43.5633 52.2174 43.85C51.6041 44.1367 50.8941 44.28 50.0874 44.28ZM60.6943 44.28C59.881 44.28 59.1243 44.07 58.4243 43.65C57.731 43.2233 57.1676 42.6267 56.7343 41.86C56.3076 41.0867 56.0943 40.18 56.0943 39.14C56.0943 38.04 56.3076 37.11 56.7343 36.35C57.1676 35.5833 57.731 35.0033 58.4243 34.61C59.1243 34.2167 59.881 34.02 60.6943 34.02C61.3276 34.02 61.8843 34.1233 62.3643 34.33C62.851 34.53 63.2643 34.8033 63.6043 35.15C63.9443 35.49 64.211 35.87 64.4043 36.29C64.5976 36.71 64.721 37.1333 64.7743 37.56L62.3943 37.62C62.2876 37.1933 62.0876 36.84 61.7943 36.56C61.5076 36.28 61.1343 36.14 60.6743 36.14C60.2943 36.14 59.9376 36.2467 59.6043 36.46C59.271 36.6667 58.9976 36.99 58.7843 37.43C58.5776 37.87 58.4743 38.44 58.4743 39.14C58.4743 39.8067 58.571 40.3633 58.7643 40.81C58.9643 41.25 59.231 41.5833 59.5643 41.81C59.8976 42.03 60.2676 42.14 60.6743 42.14C61.2743 42.14 61.711 41.9967 61.9843 41.71C62.2576 41.4167 62.3943 41.0267 62.3943 40.54H64.7743C64.7743 41.2267 64.6176 41.8533 64.3043 42.42C63.991 42.9867 63.531 43.44 62.9243 43.78C62.3176 44.1133 61.5743 44.28 60.6943 44.28ZM73.7802 44L73.4802 41.64V37.74C73.4802 37.06 73.3402 36.5567 73.0602 36.23C72.7869 35.9033 72.3202 35.74 71.6602 35.74C71.2802 35.74 70.9502 35.7967 70.6702 35.91C70.3902 36.0233 70.1736 36.1867 70.0202 36.4C69.8736 36.6067 69.8002 36.86 69.8002 37.16H67.2202C67.2202 36.4267 67.3969 35.83 67.7502 35.37C68.1036 34.9033 68.6102 34.5633 69.2702 34.35C69.9369 34.13 70.7336 34.02 71.6602 34.02C72.5002 34.02 73.2336 34.1567 73.8602 34.43C74.4869 34.6967 74.9736 35.11 75.3202 35.67C75.6669 36.23 75.8402 36.9467 75.8402 37.82V44H73.7802ZM70.6002 44.28C69.7669 44.28 69.0702 44.1367 68.5102 43.85C67.9569 43.5567 67.5402 43.1733 67.2602 42.7C66.9802 42.2267 66.8402 41.7133 66.8402 41.16C66.8402 40.5467 67.0002 40.0333 67.3202 39.62C67.6469 39.2 68.1069 38.8867 68.7002 38.68C69.2936 38.4667 69.9936 38.36 70.8002 38.36C71.3269 38.36 71.8236 38.4 72.2902 38.48C72.7636 38.56 73.2336 38.6667 73.7002 38.8V40.18C73.3336 40.06 72.9336 39.9667 72.5002 39.9C72.0669 39.8333 71.6602 39.8 71.2802 39.8C70.7202 39.8 70.2602 39.9033 69.9002 40.11C69.5402 40.3167 69.3602 40.6667 69.3602 41.16C69.3602 41.52 69.5069 41.83 69.8002 42.09C70.0936 42.35 70.5602 42.48 71.2002 42.48C71.6869 42.48 72.1002 42.3733 72.4402 42.16C72.7802 41.9467 73.0369 41.68 73.2102 41.36C73.3902 41.04 73.4802 40.72 73.4802 40.4H74.0402C74.0402 41.1 73.9102 41.7467 73.6502 42.34C73.3902 42.9267 73.0036 43.3967 72.4902 43.75C71.9836 44.1033 71.3536 44.28 70.6002 44.28ZM84.1595 44.28C83.4461 44.28 82.8395 44.1267 82.3395 43.82C81.8395 43.5133 81.4561 43.05 81.1895 42.43C80.9295 41.8033 80.7995 41.02 80.7995 40.08H81.6595C81.6595 40.5133 81.7595 40.8833 81.9595 41.19C82.1595 41.4967 82.4228 41.7333 82.7495 41.9C83.0828 42.06 83.4395 42.14 83.8195 42.14C84.2128 42.14 84.5995 42.0333 84.9795 41.82C85.3661 41.6 85.6861 41.27 85.9395 40.83C86.1928 40.3833 86.3195 39.82 86.3195 39.14C86.3195 38.52 86.2128 37.9867 85.9995 37.54C85.7861 37.0867 85.4928 36.74 85.1195 36.5C84.7528 36.26 84.3328 36.14 83.8595 36.14C83.4595 36.14 83.0928 36.23 82.7595 36.41C82.4261 36.59 82.1595 36.8533 81.9595 37.2C81.7595 37.54 81.6595 37.9533 81.6595 38.44H80.7995C80.7995 37.42 80.9561 36.5867 81.2695 35.94C81.5828 35.2867 82.0028 34.8033 82.5295 34.49C83.0561 34.1767 83.6328 34.02 84.2595 34.02C85.0261 34.02 85.7461 34.2233 86.4195 34.63C87.0995 35.0367 87.6495 35.6233 88.0695 36.39C88.4895 37.15 88.6995 38.0667 88.6995 39.14C88.6995 40.22 88.4861 41.1433 88.0595 41.91C87.6328 42.6767 87.0728 43.2633 86.3795 43.67C85.6928 44.0767 84.9528 44.28 84.1595 44.28ZM79.2995 48.74V34.3H81.2395L81.6595 36.7V48.74H79.2995ZM95.1265 44.28C94.2998 44.28 93.5432 44.0667 92.8565 43.64C92.1698 43.2133 91.6198 42.6167 91.2065 41.85C90.7932 41.0767 90.5865 40.1733 90.5865 39.14C90.5865 38.0733 90.7898 37.1567 91.1965 36.39C91.6098 35.6233 92.1598 35.0367 92.8465 34.63C93.5332 34.2233 94.2932 34.02 95.1265 34.02C95.8998 34.02 96.5665 34.1767 97.1265 34.49C97.6932 34.7967 98.1465 35.2167 98.4865 35.75C98.8332 36.2767 99.0665 36.8733 99.1865 37.54C99.3065 38.2067 99.3132 38.8933 99.2065 39.6H92.4665V38.32H97.5365L97.0765 38.62C97.0965 38.3067 97.0798 37.99 97.0265 37.67C96.9798 37.35 96.8865 37.0567 96.7465 36.79C96.6065 36.5233 96.4065 36.31 96.1465 36.15C95.8932 35.9833 95.5665 35.9 95.1665 35.9C94.6865 35.9 94.2798 36.02 93.9465 36.26C93.6132 36.5 93.3598 36.8267 93.1865 37.24C93.0132 37.6533 92.9265 38.12 92.9265 38.64V39.58C92.9265 40.1267 93.0065 40.61 93.1665 41.03C93.3332 41.45 93.5765 41.78 93.8965 42.02C94.2232 42.26 94.6332 42.38 95.1265 42.38C95.5865 42.38 95.9732 42.2733 96.2865 42.06C96.5998 41.8467 96.7998 41.5267 96.8865 41.1H99.2665C99.1665 41.7267 98.9298 42.28 98.5565 42.76C98.1898 43.2333 97.7132 43.6067 97.1265 43.88C96.5398 44.1467 95.8732 44.28 95.1265 44.28ZM106.231 39V36.94H111.851V39H106.231ZM120.25 44V33.12C120.25 32.42 120.387 31.85 120.66 31.41C120.933 30.97 121.293 30.6467 121.74 30.44C122.193 30.2267 122.683 30.12 123.21 30.12C123.537 30.12 123.873 30.1433 124.22 30.19C124.567 30.2367 124.903 30.2933 125.23 30.36L124.77 32.18C124.603 32.12 124.43 32.0733 124.25 32.04C124.07 32 123.897 31.98 123.73 31.98C123.543 31.98 123.367 32.0167 123.2 32.09C123.033 32.1567 122.897 32.2767 122.79 32.45C122.683 32.6233 122.63 32.86 122.63 33.16V44H120.25ZM118.81 35.86V34.3H124.41V35.86H118.81ZM128.42 32.52C127.96 32.52 127.6 32.4 127.34 32.16C127.087 31.9133 126.96 31.5733 126.96 31.14C126.96 30.72 127.087 30.3867 127.34 30.14C127.6 29.8867 127.96 29.76 128.42 29.76C128.873 29.76 129.23 29.8867 129.49 30.14C129.75 30.3867 129.88 30.72 129.88 31.14C129.88 31.5733 129.75 31.9133 129.49 32.16C129.23 32.4 128.873 32.52 128.42 32.52ZM127.24 44V34.26H129.6V44H127.24ZM132.076 44L135.856 39.16L132.076 34.26H134.976L137.356 37.38L139.616 34.26H142.496L138.736 39.16L142.496 44H139.616L137.196 40.88L134.976 44H132.076ZM148.31 44.28C147.483 44.28 146.727 44.0667 146.04 43.64C145.353 43.2133 144.803 42.6167 144.39 41.85C143.977 41.0767 143.77 40.1733 143.77 39.14C143.77 38.0733 143.973 37.1567 144.38 36.39C144.793 35.6233 145.343 35.0367 146.03 34.63C146.717 34.2233 147.477 34.02 148.31 34.02C149.083 34.02 149.75 34.1767 150.31 34.49C150.877 34.7967 151.33 35.2167 151.67 35.75C152.017 36.2767 152.25 36.8733 152.37 37.54C152.49 38.2067 152.497 38.8933 152.39 39.6H145.65V38.32H150.72L150.26 38.62C150.28 38.3067 150.263 37.99 150.21 37.67C150.163 37.35 150.07 37.0567 149.93 36.79C149.79 36.5233 149.59 36.31 149.33 36.15C149.077 35.9833 148.75 35.9 148.35 35.9C147.87 35.9 147.463 36.02 147.13 36.26C146.797 36.5 146.543 36.8267 146.37 37.24C146.197 37.6533 146.11 38.12 146.11 38.64V39.58C146.11 40.1267 146.19 40.61 146.35 41.03C146.517 41.45 146.76 41.78 147.08 42.02C147.407 42.26 147.817 42.38 148.31 42.38C148.77 42.38 149.157 42.2733 149.47 42.06C149.783 41.8467 149.983 41.5267 150.07 41.1H152.45C152.35 41.7267 152.113 42.28 151.74 42.76C151.373 43.2333 150.897 43.6067 150.31 43.88C149.723 44.1467 149.057 44.28 148.31 44.28ZM158.876 44.28C158.062 44.28 157.319 44.0667 156.646 43.64C155.979 43.2067 155.446 42.6033 155.046 41.83C154.652 41.05 154.456 40.14 154.456 39.1C154.456 38.0733 154.646 37.18 155.026 36.42C155.412 35.6533 155.926 35.0633 156.566 34.65C157.212 34.23 157.929 34.02 158.716 34.02C159.436 34.02 160.059 34.1933 160.586 34.54C161.112 34.88 161.516 35.3867 161.796 36.06C162.076 36.7333 162.216 37.56 162.216 38.54H161.476C161.476 38.0333 161.372 37.6033 161.166 37.25C160.959 36.89 160.686 36.6167 160.346 36.43C160.012 36.2367 159.649 36.14 159.256 36.14C158.782 36.14 158.362 36.2633 157.996 36.51C157.636 36.7567 157.352 37.1033 157.146 37.55C156.939 37.99 156.836 38.5067 156.836 39.1C156.836 39.7133 156.939 40.2467 157.146 40.7C157.352 41.1533 157.636 41.5067 157.996 41.76C158.362 42.0133 158.776 42.14 159.236 42.14C159.609 42.14 159.966 42.04 160.306 41.84C160.652 41.6333 160.932 41.3467 161.146 40.98C161.366 40.6133 161.476 40.1867 161.476 39.7H162.216C162.216 40.72 162.062 41.57 161.756 42.25C161.456 42.9233 161.052 43.43 160.546 43.77C160.039 44.11 159.482 44.28 158.876 44.28ZM161.916 44L161.476 41.6V30.28H163.856V44H161.916Z" fill="black"/>
</svg>
